<?xml version="1.0" encoding="utf-8"?>
<!-- Generator: Adobe Illustrator 21.0.2, SVG Export Plug-In . SVG Version: 6.00 Build 0)  -->
<svg version="1.1" id="Layer_1" xmlns="http://www.w3.org/2000/svg" xmlns:xlink="http://www.w3.org/1999/xlink" x="0px" y="0px"
	 viewBox="0 0 92.7 18.8" style="enable-background:new 0 0 92.7 18.8;" xml:space="preserve">
<style type="text/css">
	.st0{fill:#FFFFFF;}
</style>
<path class="st0" d="M83.2,18.8H76V0h7.2c5.2,0,9.5,4.2,9.5,9.4C92.7,14.6,88.4,18.8,83.2,18.8z M83.2,4h-3.1v10.7h3.1
	c3,0,5.4-2.4,5.4-5.4C88.6,6.4,86.2,4,83.2,4z M58.5,0h14.3v4H62.6v3.6h7.6v3.6h-7.6v3.6h10.2v4H58.5V0z M46.3,18.8h-6.9V0h6.9
	c5.2,0,9.5,4.2,9.5,9.4C55.8,14.6,51.6,18.8,46.3,18.8z M46.3,2.7h-4.3v13.5h4.3c3.8,0,6.8-3,6.8-6.8C53.2,5.7,50.1,2.7,46.3,2.7z
	 M27.2,18.8c-2.4,0-4.9-0.9-6.7-2.7c-1.8-1.8-2.8-4.1-2.8-6.6c0-2.5,1-4.9,2.8-6.6C22.3,1,24.7,0,27.2,0c2.5,0,4.9,1,6.7,2.8
	c1.8,1.8,2.8,4.1,2.8,6.6c0,2.5-1,4.9-2.8,6.6C32.1,17.9,29.7,18.8,27.2,18.8z M32,4.6c-1.3-1.3-3-2-4.8-2c-1.8,0-3.5,0.7-4.8,2
	c-1.3,1.3-2,3-2,4.8c0,1.8,0.7,3.5,2,4.8c2.7,2.6,7,2.6,9.6,0c1.3-1.3,2-3,2-4.8C34,7.6,33.3,5.9,32,4.6z M14.3,4.6
	c-1.3-1.3-3-2-4.8-2c-1.8,0-3.5,0.7-4.8,2c-1.3,1.3-2,3-2,4.8c0,1.8,0.7,3.5,2,4.8c2.7,2.6,7,2.6,9.6,0c0.3-0.2,0.5-0.5,0.7-0.8
	l1.2,2.7c0,0,0,0,0,0c-1.8,1.8-4.3,2.7-6.7,2.7c-2.4,0-4.9-0.9-6.7-2.7c-3.7-3.7-3.7-9.6,0-13.3C4.6,1,6.9,0,9.5,0
	c2.5,0,4.9,1,6.7,2.8c0,0,0,0,0,0L15,5.5C14.8,5.2,14.6,4.9,14.3,4.6z"/>
</svg>
